<svg width="41" height="41" viewBox="0 0 41 41" fill="none" xmlns="http://www.w3.org/2000/svg">
<path d="M6.34566 39.3906C6.36067 39.3909 6.37546 39.394 6.38915 39.3995C6.40284 39.405 6.41516 39.4128 6.42539 39.4226L6.63116 39.6241C6.47144 39.7871 6.27403 39.9175 6.05243 40.0064C5.79293 40.1034 5.51326 40.1502 5.23192 40.1438C4.96755 40.1486 4.70488 40.105 4.46028 40.0156C4.23964 39.9334 4.04139 39.8101 3.87898 39.6538C3.71321 39.4918 3.58553 39.3019 3.50344 39.0952C3.41355 38.8649 3.36916 38.6225 3.37226 38.3787C3.36861 38.1333 3.4166 37.8895 3.51373 37.6598C3.60359 37.4519 3.73912 37.262 3.91241 37.1012C4.08805 36.9436 4.29815 36.8197 4.52973 36.7372C4.78306 36.6498 5.05283 36.6063 5.32452 36.609C5.57689 36.6036 5.82792 36.6433 6.06272 36.7258C6.26644 36.8044 6.45349 36.9136 6.61573 37.0486L6.4434 37.2638C6.43149 37.2789 6.41669 37.2921 6.39967 37.3027C6.37934 37.3151 6.35477 37.3208 6.33022 37.3187C6.30353 37.3171 6.27779 37.3092 6.25563 37.2958L6.16303 37.2386L6.03443 37.1653C5.97891 37.1381 5.92133 37.1144 5.86209 37.0944C5.78581 37.0701 5.70756 37.0509 5.62803 37.0371C5.52709 37.0206 5.42457 37.0129 5.32195 37.0142C5.12631 37.012 4.93215 37.0447 4.75093 37.1104C4.58192 37.1712 4.42937 37.2633 4.30338 37.3805C4.17512 37.5052 4.07629 37.6516 4.01273 37.8109C3.94029 37.9932 3.90458 38.1854 3.90727 38.3787C3.90418 38.575 3.93988 38.7703 4.01273 38.9556C4.07549 39.1135 4.1725 39.259 4.29823 39.3837C4.41604 39.4999 4.56206 39.5908 4.72521 39.6493C4.89311 39.7112 5.07333 39.7424 5.25507 39.7408C5.36005 39.7423 5.465 39.7361 5.56887 39.7225C5.73848 39.7041 5.90118 39.6516 6.04472 39.5691C6.11671 39.5269 6.18467 39.4794 6.24792 39.4272C6.27436 39.4047 6.30914 39.3917 6.34566 39.3906Z" fill="#AFB1B8"/>
<path d="M12.2871 38.3783C12.2903 38.6212 12.2432 38.8625 12.1482 39.0902C12.0644 39.2968 11.9323 39.4851 11.7608 39.643C11.5892 39.8008 11.382 39.9245 11.1528 40.0059C10.6492 40.1768 10.0925 40.1768 9.58896 40.0059C9.36125 39.9232 9.15539 39.7993 8.98452 39.6419C8.81305 39.4812 8.68004 39.2912 8.59356 39.0833C8.40827 38.6223 8.40827 38.1183 8.59356 37.6572C8.6813 37.4492 8.81414 37.2587 8.98452 37.0964C9.15685 36.9439 9.3626 36.8247 9.58896 36.7461C10.0919 36.5721 10.6499 36.5721 11.1528 36.7461C11.3813 36.8287 11.588 36.9526 11.7598 37.1101C11.9292 37.2692 12.0612 37.4568 12.1482 37.6618C12.2435 37.891 12.2906 38.1339 12.2871 38.3783ZM11.747 38.3783C11.751 38.184 11.718 37.9905 11.6492 37.806C11.5916 37.648 11.4979 37.5022 11.374 37.3779C11.2534 37.2603 11.1049 37.168 10.9393 37.1078C10.5734 36.9826 10.1684 36.9826 9.80245 37.1078C9.63684 37.168 9.48836 37.2603 9.36776 37.3779C9.24215 37.5015 9.14747 37.6474 9.08997 37.806C8.9591 38.1786 8.9591 38.5779 9.08997 38.9506C9.14803 39.1089 9.24265 39.2547 9.36776 39.3786C9.48851 39.4955 9.637 39.587 9.80245 39.6465C10.169 39.7685 10.5728 39.7685 10.9393 39.6465C11.1048 39.587 11.2533 39.4955 11.374 39.3786C11.4974 39.254 11.591 39.1084 11.6492 38.9506C11.7183 38.7662 11.7513 38.5726 11.747 38.3783Z" fill="#AFB1B8"/>
<path d="M16.3408 38.9783L16.3948 39.1064C16.4154 39.0607 16.4334 39.0195 16.4539 38.9783C16.4736 38.9352 16.4959 38.8932 16.5208 38.8524L17.8352 36.726C17.8609 36.6894 17.884 36.6665 17.9098 36.6596C17.9447 36.6501 17.9813 36.6463 18.0178 36.6482H18.4062V40.1067H17.9458V37.5637C17.9458 37.5317 17.9458 37.4951 17.9458 37.4562C17.9433 37.4165 17.9433 37.3768 17.9458 37.3371L16.6237 39.4933C16.6069 39.5255 16.58 39.5529 16.5463 39.5719C16.5125 39.591 16.4733 39.601 16.4334 39.6008H16.3588C16.3187 39.6013 16.2794 39.5914 16.2456 39.5723C16.2118 39.5532 16.185 39.5257 16.1684 39.4933L14.8078 37.3234C14.8078 37.3646 14.8078 37.4058 14.8078 37.447C14.8078 37.4882 14.8078 37.5248 14.8078 37.5569V40.0998H14.3628V36.6482H14.7512C14.7877 36.6463 14.8243 36.6501 14.8592 36.6596C14.8911 36.6737 14.9165 36.6971 14.9312 36.726L16.2739 38.8547C16.3003 38.894 16.3227 38.9354 16.3408 38.9783Z" fill="#AFB1B8"/>
<path d="M21.2869 38.8064V40.1019H20.7725V36.6481H21.9196C22.1362 36.6444 22.3521 36.6698 22.5601 36.7236C22.7266 36.7656 22.881 36.839 23.0128 36.9387C23.127 37.0323 23.2151 37.1483 23.27 37.2775C23.3307 37.4184 23.3604 37.5683 23.3575 37.7192C23.3597 37.8707 23.3274 38.021 23.2623 38.161C23.2005 38.2935 23.1054 38.4117 22.9845 38.5066C22.8525 38.6105 22.6974 38.6885 22.5292 38.7355C22.329 38.7924 22.1195 38.8195 21.9093 38.8156L21.2869 38.8064ZM21.2869 38.4356H21.9093C22.0446 38.4372 22.1792 38.4194 22.308 38.383C22.4143 38.3511 22.5123 38.3005 22.5961 38.2342C22.6734 38.1709 22.7332 38.0926 22.771 38.0053C22.8131 37.9131 22.8341 37.8142 22.8327 37.7146C22.8387 37.6186 22.8211 37.5226 22.7811 37.4333C22.7412 37.3439 22.6798 37.2634 22.6013 37.1974C22.4047 37.0608 22.1579 36.9947 21.9093 37.012H21.2869V38.4356Z" fill="#AFB1B8"/>
<path d="M28.2007 40.1066H27.7943C27.7536 40.1079 27.7135 40.0966 27.6812 40.0745C27.652 40.053 27.6291 40.0255 27.6143 39.9944L27.2645 39.1589H25.5077L25.145 39.9944C25.1317 40.0249 25.1095 40.0518 25.0807 40.0722C25.048 40.0957 25.007 40.1078 24.965 40.1066H24.5586L26.1019 36.6477H26.6369L28.2007 40.1066ZM25.6543 38.8224H27.105L26.4928 37.4146C26.4461 37.3087 26.4074 37.2001 26.3771 37.0895L26.3179 37.2703C26.2999 37.3253 26.2794 37.3756 26.2614 37.4168L25.6543 38.8224Z" fill="#AFB1B8"/>
<path d="M30.4233 36.6638C30.4541 36.6788 30.4805 36.7 30.5005 36.7256L32.7511 39.3329C32.7511 39.2917 32.7511 39.2505 32.7511 39.2115C32.7511 39.1726 32.7511 39.1337 32.7511 39.0971V36.6478H33.2115V40.1066H32.9543C32.9178 40.1076 32.8816 40.1005 32.8489 40.086C32.8171 40.0695 32.7892 40.0477 32.7666 40.0219L30.5185 37.4169C30.521 37.4566 30.521 37.4963 30.5185 37.5359C30.5185 37.5749 30.5185 37.6092 30.5185 37.6412V40.1066H30.0581V36.6478H30.3308C30.3626 36.647 30.3942 36.6525 30.4233 36.6638Z" fill="#AFB1B8"/>
<path d="M37.0028 38.731V40.1044H36.4883V38.731L35.0659 36.6479H35.5263C35.566 36.6458 35.6052 36.6564 35.6369 36.6777C35.6649 36.6999 35.6884 36.7262 35.7064 36.7555L36.5964 38.0992C36.6324 38.1564 36.6632 38.2091 36.689 38.2594C36.7147 38.3098 36.7353 38.3579 36.7533 38.4059L36.8201 38.2571C36.8451 38.2027 36.8743 38.15 36.9076 38.0992L37.7847 36.7464C37.8031 36.7193 37.8256 36.6947 37.8516 36.6731C37.8821 36.6494 37.9217 36.6371 37.9622 36.6388H38.4277L37.0028 38.731Z" fill="#AFB1B8"/>
<path d="M16.0859 30.8436C16.3097 30.8687 16.5361 30.8893 16.765 30.9076C20.2356 29.526 23.1716 27.2647 25.206 24.4063C27.2404 21.5479 28.283 18.2193 28.2033 14.8365L24.3785 11.4327C25.1562 15.0343 24.7925 18.7574 23.3279 22.1855C21.8634 25.6136 19.3559 28.6114 16.0859 30.8436Z" fill="#AFB1B8"/>
<path d="M14.7202 30.6852L14.8231 30.7035C18.3173 28.4793 20.9814 25.3734 22.4708 21.7874C23.9601 18.2013 24.2063 14.3001 23.1774 10.5883L17.7296 5.7403C19.9331 9.72524 20.82 14.185 20.2873 18.6009C19.7546 23.0168 17.824 27.2073 14.7202 30.6852Z" fill="#AFB1B8"/>
<path d="M33.1959 18.8332C32.2704 22.5501 30.0225 25.9022 26.7861 28.3919C25.841 29.123 24.8214 29.7744 23.7407 30.3375C26.3761 29.6482 28.7983 28.4295 30.8207 26.7754C32.8432 25.1213 34.4117 23.076 35.4054 20.7971L33.1959 18.8332Z" fill="#AFB1B8"/>
<path d="M32.3292 18.2859L29.1835 15.4865C29.1233 18.6781 28.1037 21.7973 26.2306 24.5196C24.3575 27.242 21.6993 29.4682 18.5322 30.967H18.5477C19.2534 30.9667 19.9586 30.9293 20.6594 30.8548C23.6192 29.7797 26.2339 28.0693 28.2702 25.8761C30.3064 23.683 31.7009 21.0753 32.3292 18.2859Z" fill="#AFB1B8"/>
<path d="M15.1757 3.69586L11.4229 0.351624C8.06808 1.50531 5.18278 3.53345 3.14464 6.17061C1.1065 8.80776 0.0104686 11.9311 0 15.1317H0C0.0125737 18.6684 1.3502 22.1003 3.80116 24.8842C6.25213 27.6682 9.67642 29.6452 13.5321 30.5024C16.974 26.7706 18.9892 22.1593 19.2847 17.3386C19.5803 12.5178 18.1409 7.73879 15.1757 3.69586Z" fill="#AFB1B8"/>
<path d="M41.0002 17.771C40.9867 13.575 39.1076 9.55427 35.7735 6.58721C32.4394 3.62016 27.9213 1.94794 23.2062 1.93586C21.0274 1.93385 18.8671 2.29165 16.835 2.99108L39.8119 23.4385C40.5987 21.6311 41.0016 19.7093 41.0002 17.771Z" fill="#AFB1B8"/>
</svg>
