<svg width="40" height="50" viewBox="0 0 40 50" fill="none" xmlns="http://www.w3.org/2000/svg">
<g clip-path="url(#clip0)">
<path d="M16.9769 3.42237H17.1135C17.3665 3.42237 17.6397 3.44612 17.9104 3.4675C19.103 3.54607 20.2873 3.71285 21.452 3.9663V1.29177C20.2527 1.01071 19.0296 0.828709 17.7965 0.747842C17.3285 0.714589 16.8302 0.693212 16.3192 0.681335H15.8917C13.4168 0.690029 10.9526 0.986824 8.55545 1.56493C5.82521 2.20094 3.20457 3.19654 0.771484 4.52211V31.0465C3.11421 29.8575 5.60704 28.9501 8.19117 28.3458C10.2315 27.8596 12.3174 27.5605 14.4193 27.4527H14.5028C14.8545 27.4361 15.2061 27.4266 15.5678 27.4242V24.707C12.8366 24.7398 10.1192 25.0771 7.47273 25.7117C6.49372 25.9492 5.54761 26.2057 4.65967 26.4908L3.64778 26.8114V6.13015L4.08036 5.93538C7.38159 4.47319 10.9521 3.62236 14.5964 3.4295C14.6267 3.42743 14.6572 3.42743 14.6875 3.4295C15.0897 3.41049 15.4945 3.40099 15.8917 3.40099H16.3268H16.347C16.557 3.40574 16.7669 3.41049 16.9769 3.42237Z" fill="#AFB1B8"/>
<path d="M24.111 6.22277C23.4457 6.22277 22.788 6.20139 22.153 6.15626C21.3941 6.104 20.6149 6.01849 19.8763 5.90211C19.426 5.83085 18.9833 5.74534 18.5532 5.65271V31.8731C20.3739 32.2941 22.2435 32.5 24.1186 32.4859C26.5933 32.4765 29.0573 32.1805 31.4548 31.6047C34.1856 30.9678 36.8069 29.9722 39.2413 28.6475V2.59576C36.8989 3.7841 34.4071 4.69218 31.8242 5.2988C29.3034 5.90355 26.7128 6.21388 24.111 6.22277ZM35.3354 6.67644L36.3473 6.35816V27.0466L35.9147 27.2413C34.2554 27.9787 32.5226 28.5603 30.7414 28.9776C28.5784 29.5004 26.3547 29.7692 24.1211 29.7781C23.4533 29.7781 22.7905 29.752 22.148 29.6997L21.4548 29.6427V27.1321V8.36761L22.2618 8.41749C22.8487 8.45312 23.4558 8.46975 24.1161 8.46975C26.9517 8.46033 29.7751 8.12207 32.5224 7.46264C33.4659 7.22987 34.4045 6.96859 35.3354 6.67644Z" fill="#AFB1B8"/>
<path d="M2.73726 40.1105C2.59178 39.9695 2.41641 39.8589 2.22248 39.7856C2.02856 39.7124 1.82042 39.6782 1.61153 39.6853C1.38892 39.6825 1.16793 39.7213 0.961389 39.7993C0.772023 39.8698 0.599889 39.9756 0.455444 40.1105C0.312573 40.2457 0.201414 40.4075 0.12911 40.5855C0.0498013 40.772 0.0102645 40.9714 0.0127426 41.1722V44.7161C0.0036949 44.9658 0.0547102 45.2142 0.161996 45.4429C0.251555 45.6245 0.380847 45.7864 0.541455 45.9179C0.693075 46.0372 0.8711 46.1232 1.06258 46.1697C1.24706 46.2182 1.43768 46.2429 1.62924 46.2434C1.84053 46.2453 2.04965 46.2031 2.24143 46.1198C2.43107 46.0423 2.60289 45.931 2.74737 45.7921C2.88826 45.6544 3.00064 45.4933 3.07877 45.317C3.15985 45.1383 3.20117 44.9459 3.2002 44.7517V44.355H2.20854V44.6709C2.21149 44.7788 2.19172 44.8862 2.15036 44.9869C2.11807 45.0623 2.06889 45.1303 2.00617 45.1864C1.94474 45.2327 1.87428 45.2674 1.79873 45.2885C1.73176 45.3093 1.66182 45.3205 1.59129 45.3218C1.50275 45.3314 1.41308 45.3189 1.33134 45.2855C1.24961 45.2522 1.17871 45.1991 1.12582 45.1317C1.03234 44.9893 0.986517 44.8238 0.994276 44.6567V41.3527C0.988124 41.1695 1.02981 40.9877 1.1157 40.823C1.16718 40.7482 1.24002 40.6885 1.3259 40.6507C1.41178 40.6129 1.50725 40.5986 1.60141 40.6093C1.68689 40.6064 1.77182 40.6231 1.84893 40.6578C1.92603 40.6926 1.99301 40.7444 2.04411 40.8088C2.15508 40.9449 2.2131 41.1125 2.20854 41.2838V41.5902H3.19008V41.2292C3.19207 41.0172 3.15085 40.8068 3.06865 40.6093C2.99539 40.4236 2.88264 40.2539 2.73726 40.1105Z" fill="#AFB1B8"/>
<path d="M8.62867 40.0701C8.31247 39.8207 7.91337 39.6829 7.50042 39.6805C7.29843 39.6813 7.09813 39.7151 6.90846 39.7803C6.71589 39.8448 6.53816 39.9431 6.38481 40.0701C6.22052 40.208 6.08943 40.3773 6.00029 40.5665C5.90039 40.783 5.85121 41.0171 5.8561 41.253V44.6519C5.84926 44.891 5.89848 45.1286 6.00029 45.3479C6.09003 45.5307 6.22127 45.6928 6.38481 45.8229C6.53641 45.9544 6.71444 46.0562 6.90846 46.1222C7.09813 46.1874 7.29843 46.2212 7.50042 46.222C7.70244 46.2216 7.90282 46.1878 8.09237 46.1222C8.28971 46.0552 8.4717 45.9537 8.62867 45.8229C8.78685 45.6904 8.9143 45.5287 9.00307 45.3479C9.10488 45.1286 9.15411 44.891 9.14727 44.6519V41.253C9.15215 41.0171 9.10297 40.783 9.00307 40.5665C8.91481 40.3792 8.78751 40.2104 8.62867 40.0701ZM8.16573 44.6519C8.17409 44.7425 8.1607 44.8337 8.12655 44.9188C8.09241 45.0039 8.03837 45.0807 7.96842 45.1436C7.83743 45.2462 7.67226 45.3024 7.50168 45.3024C7.3311 45.3024 7.16593 45.2462 7.03495 45.1436C6.965 45.0807 6.91096 45.0039 6.87681 44.9188C6.84266 44.8337 6.82927 44.7425 6.83763 44.6519V41.253C6.82927 41.1624 6.84266 41.0712 6.87681 40.9861C6.91096 40.901 6.965 40.8242 7.03495 40.7613C7.16593 40.6587 7.3311 40.6025 7.50168 40.6025C7.67226 40.6025 7.83743 40.6587 7.96842 40.7613C8.03837 40.8242 8.09241 40.901 8.12655 40.9861C8.1607 41.0712 8.17409 41.1624 8.16573 41.253V44.6519Z" fill="#AFB1B8"/>
<path d="M16.3675 46.1698V39.7352H15.4138L14.1616 43.1413H14.1439L12.8816 39.7352H11.938V46.1698H12.9221V42.2554H12.9398L13.9036 45.0225H14.3944L15.3658 42.2554H15.3835V46.1698H16.3675Z" fill="#AFB1B8"/>
<path d="M21.9582 40.1864C21.8067 40.0276 21.6154 39.9068 21.4016 39.8349C21.1713 39.7649 20.9303 39.7312 20.6883 39.7351H19.2261V46.1697H20.2076V43.6566H20.7136C21.0198 43.6697 21.3245 43.6092 21.599 43.4809C21.8221 43.3651 22.0082 43.1954 22.1378 42.9892C22.2513 42.8181 22.3278 42.6276 22.3629 42.4286C22.4016 42.1865 22.4193 41.9419 22.4161 41.6971C22.4256 41.3881 22.3933 41.0792 22.3199 40.7778C22.2545 40.5552 22.13 40.3517 21.9582 40.1864ZM21.4522 42.1484C21.448 42.2649 21.4169 42.3791 21.3612 42.4833C21.3051 42.5822 21.2163 42.6614 21.1082 42.7089C20.9628 42.7697 20.8042 42.7973 20.6453 42.7897H20.1975V40.6021H20.7034C20.8558 40.5951 21.0077 40.6228 21.1461 40.6828C21.2476 40.7372 21.3282 40.8204 21.3763 40.9204C21.43 41.0334 21.4592 41.1553 21.4624 41.279C21.4624 41.4144 21.4624 41.5569 21.4624 41.7066C21.4624 41.8562 21.4725 42.0106 21.4624 42.1484H21.4522Z" fill="#AFB1B8"/>
<path d="M26.6074 39.7352H25.803L24.2852 46.1698H25.2667L25.5551 44.7874H26.8933L27.1817 46.1698H28.1632L26.6074 39.7352ZM25.7018 43.9109L26.185 41.5784H26.2027L26.6833 43.9109H25.7018Z" fill="#AFB1B8"/>
<path d="M32.9496 43.6116H32.9319L31.4494 39.7352H30.5059V46.1698H31.4874V42.3005H31.5076L33.0078 46.1698H33.9311V39.7352H32.9496V43.6116Z" fill="#AFB1B8"/>
<path d="M38.9476 39.7352L38.1583 42.2934H38.1381L37.3488 39.7352H36.3091L37.6574 43.4501V46.1698H38.639V43.4501L39.9873 39.7352H38.9476Z" fill="#AFB1B8"/>
<path d="M0 47.9867H0.473058V49.2266H0.794333V47.9867H1.26486V47.7325H0V47.9867Z" fill="#AFB1B8"/>
<path d="M3.97672 47.7325L3.35693 49.2266H3.69845L3.82999 48.8869H4.46748L4.60409 49.2266H4.95319L4.31823 47.7325H3.97672ZM3.92612 48.6351L4.14368 48.0817L4.36123 48.6351H3.92612Z" fill="#AFB1B8"/>
<path d="M7.90793 48.6757H8.27727V48.8681C8.16941 48.9488 8.03576 48.9931 7.89781 48.9939C7.8333 48.9973 7.76886 48.9861 7.70988 48.9614C7.65091 48.9366 7.59911 48.8989 7.55883 48.8514C7.47402 48.7377 7.43217 48.6006 7.43993 48.4619C7.43993 48.1294 7.59424 47.9631 7.90034 47.9631C7.98091 47.9556 8.06168 47.9754 8.12804 48.019C8.19439 48.0626 8.24194 48.127 8.26209 48.2006L8.57831 48.1436C8.51001 47.8515 8.28486 47.7042 7.90034 47.7042C7.69468 47.6991 7.4947 47.7679 7.34127 47.8966C7.26069 47.9709 7.19834 48.0608 7.15858 48.1601C7.11882 48.2594 7.10261 48.3656 7.11107 48.4714C7.10175 48.6758 7.17493 48.876 7.31598 49.0319C7.39434 49.1074 7.4892 49.166 7.59401 49.2037C7.69883 49.2415 7.8111 49.2574 7.92311 49.2505C8.17338 49.257 8.41652 49.1718 8.60108 49.0129V48.4239H7.90793V48.6757Z" fill="#AFB1B8"/>
<path d="M11.9224 47.7325H11.5986V49.2266H12.7193V48.9724H11.9224V47.7325Z" fill="#AFB1B8"/>
<path d="M15.3175 47.7325H14.9937V49.2266H15.3175V47.7325Z" fill="#AFB1B8"/>
<path d="M18.6364 48.7301L17.9812 47.7325H17.6675V49.2266H17.9685V48.2503L18.6111 49.2266H18.9323V47.7325H18.6364V48.7301Z" fill="#AFB1B8"/>
<path d="M21.6368 48.5686H22.4337V48.3145H21.6368V47.9867H22.4944V47.7325H21.313V49.2266H22.5273V48.9724H21.6368V48.5686Z" fill="#AFB1B8"/>
<path d="M28.9121 48.3216H28.2822V47.7325H27.9609V49.2266H28.2822V48.5734H28.9121V49.2266H29.2334V47.7325H28.9121V48.3216Z" fill="#AFB1B8"/>
<path d="M31.9302 48.5686H32.7296V48.3145H31.9302V47.9867H32.7903V47.7325H31.6089V49.2266H32.8206V48.9724H31.9302V48.5686Z" fill="#AFB1B8"/>
<path d="M36.0235 48.5687C36.3018 48.5284 36.4434 48.3906 36.4434 48.1531C36.4515 48.0895 36.4412 48.0251 36.4136 47.9666C36.386 47.9081 36.3421 47.8576 36.2866 47.8205C36.1417 47.7526 35.9801 47.7222 35.8186 47.7327H35.1406V49.2267H35.4619V48.602H35.5251C35.5936 48.598 35.6621 48.6094 35.725 48.6352C35.772 48.6623 35.8111 48.6998 35.8388 48.7445L36.1879 49.2196H36.5724L36.3777 48.9274C36.2916 48.7832 36.1702 48.6602 36.0235 48.5687ZM35.6997 48.3621H35.4619V47.9868H35.7149C35.8251 47.9785 35.936 47.9906 36.0412 48.0224C36.0646 48.0417 36.0831 48.0657 36.0952 48.0926C36.1074 48.1195 36.113 48.1487 36.1115 48.1779C36.11 48.2071 36.1016 48.2356 36.0868 48.2613C36.072 48.287 36.0512 48.3093 36.026 48.3265C35.9204 48.3567 35.8099 48.3688 35.6997 48.3621Z" fill="#AFB1B8"/>
<path d="M39.1094 48.5686H39.9063V48.3145H39.1094V47.9867H39.9696V47.7325H38.7856V49.2266H39.9999V48.9724H39.1094V48.5686Z" fill="#AFB1B8"/>
</g>
<defs>
<clipPath id="clip0">
<rect width="40" height="48.5714" fill="white" transform="translate(0 0.681335)"/>
</clipPath>
</defs>
</svg>
