<svg width="45" height="47" viewBox="0 0 45 47" fill="none" xmlns="http://www.w3.org/2000/svg">
<path d="M6 0.615356L13.3076 7.07718H33.6924V25.1027L41 31.5645V0.615356H6Z" fill="#AFB1B8"/>
<path d="M0 6.80493V36.87H34V24.9193L13.5231 6.81237L0 6.80493ZM27.5231 32.4722H5.38008V12.2519H6.9453V31.103H27.5231V32.4722Z" fill="#AFB1B8"/>
<path d="M9.79102 42.6526L10.6089 40.9681H11.2925L10.1011 43.2142V44.5228H9.48096V43.2142L8.28711 40.9681H8.97314L9.79102 42.6526ZM13.3018 43.6951H11.9248L11.6367 44.5228H10.9946L12.3374 40.9681H12.8916L14.2368 44.5228H13.5923L13.3018 43.6951ZM12.0981 43.1971H13.1284L12.6133 41.7225L12.0981 43.1971ZM15.7358 43.5633C15.7358 43.3989 15.7806 43.2484 15.8701 43.1116C15.9596 42.9733 16.1362 42.8097 16.3999 42.6209C16.2616 42.4468 16.1647 42.2986 16.1094 42.1766C16.0557 42.0545 16.0288 41.9365 16.0288 41.8226C16.0288 41.5443 16.1134 41.3245 16.2827 41.1634C16.452 41.0006 16.6799 40.9193 16.9663 40.9193C17.2251 40.9193 17.4367 40.9957 17.6011 41.1487C17.7671 41.3001 17.8501 41.4881 17.8501 41.7127C17.8501 41.8608 17.8127 41.9975 17.7378 42.1229C17.6629 42.2466 17.54 42.3703 17.3691 42.494L17.1274 42.6697L17.8135 43.4803C17.9128 43.285 17.9624 43.0677 17.9624 42.8284H18.4775C18.4775 43.2663 18.375 43.6251 18.1699 43.9051L18.6924 44.5228H18.0039L17.8037 44.2859C17.5498 44.4764 17.2471 44.5716 16.8955 44.5716C16.5439 44.5716 16.2624 44.4788 16.0508 44.2933C15.8408 44.1061 15.7358 43.8628 15.7358 43.5633ZM16.9126 44.098C17.1128 44.098 17.3 44.0312 17.4741 43.8978L16.6978 42.9822L16.6221 43.0359C16.4268 43.1841 16.3291 43.3533 16.3291 43.5438C16.3291 43.7082 16.382 43.8416 16.4878 43.9442C16.5936 44.0467 16.7352 44.098 16.9126 44.098ZM16.5854 41.8079C16.5854 41.9446 16.6693 42.1164 16.8369 42.3231L17.1079 42.1375L17.1836 42.0765C17.2845 41.987 17.335 41.8722 17.335 41.7322C17.335 41.6395 17.3 41.5605 17.23 41.4954C17.16 41.4287 17.0713 41.3953 16.9639 41.3953C16.8483 41.3953 16.7563 41.4344 16.688 41.5125C16.6196 41.5906 16.5854 41.6891 16.5854 41.8079ZM23.043 43.3655C23.0072 43.7448 22.8672 44.041 22.623 44.2542C22.3789 44.4658 22.0542 44.5716 21.6489 44.5716C21.3657 44.5716 21.1159 44.5049 20.8994 44.3714C20.6846 44.2363 20.5186 44.0451 20.4014 43.7977C20.2842 43.5503 20.2231 43.263 20.2183 42.9359V42.6038C20.2183 42.2685 20.2777 41.9731 20.3965 41.7176C20.5153 41.4621 20.6854 41.2651 20.9067 41.1268C21.1297 40.9884 21.3869 40.9193 21.6782 40.9193C22.0705 40.9193 22.3862 41.0259 22.6255 41.2391C22.8647 41.4523 23.0039 41.7534 23.043 42.1424H22.4277C22.3984 41.8869 22.3236 41.7029 22.2031 41.5906C22.0843 41.4767 21.9093 41.4197 21.6782 41.4197C21.4097 41.4197 21.203 41.5182 21.0581 41.7151C20.9149 41.9105 20.8416 42.1977 20.8384 42.577V42.8919C20.8384 43.276 20.9067 43.569 21.0435 43.7708C21.1818 43.9726 21.3836 44.0735 21.6489 44.0735C21.8914 44.0735 22.0737 44.019 22.1958 43.91C22.3179 43.8009 22.3952 43.6194 22.4277 43.3655H23.043ZM26.4341 42.8382C26.4341 43.1865 26.3739 43.4925 26.2534 43.7562C26.133 44.0182 25.9604 44.22 25.7358 44.3616C25.5129 44.5016 25.2557 44.5716 24.9644 44.5716C24.6763 44.5716 24.4191 44.5016 24.1929 44.3616C23.9683 44.22 23.7941 44.019 23.6704 43.7586C23.5483 43.4982 23.4865 43.1979 23.4849 42.8577V42.6575C23.4849 42.3109 23.5459 42.0049 23.668 41.7396C23.7917 41.4743 23.965 41.2716 24.188 41.1317C24.4126 40.9901 24.6698 40.9193 24.9595 40.9193C25.2492 40.9193 25.5055 40.9892 25.7285 41.1292C25.9531 41.2676 26.1265 41.4678 26.2485 41.7298C26.3706 41.9902 26.4325 42.2938 26.4341 42.6404V42.8382ZM25.8164 42.6526C25.8164 42.2588 25.7415 41.9568 25.5918 41.7469C25.4437 41.5369 25.2329 41.4319 24.9595 41.4319C24.6925 41.4319 24.4834 41.5369 24.332 41.7469C24.1823 41.9552 24.1058 42.2506 24.1025 42.6331V42.8382C24.1025 43.2288 24.1782 43.5307 24.3296 43.744C24.4826 43.9572 24.6942 44.0638 24.9644 44.0638C25.2378 44.0638 25.4478 43.9596 25.5942 43.7513C25.7424 43.5429 25.8164 43.2386 25.8164 42.8382V42.6526Z" fill="#AFB1B8"/>
</svg>
