<svg width="59" height="45" viewBox="0 0 59 45" fill="none" xmlns="http://www.w3.org/2000/svg">
<g clip-path="url(#clip0)">
<path d="M4.48764 37.1715C4.71752 37.4383 4.83998 37.7725 4.83356 38.1155C4.84529 38.3393 4.8032 38.5626 4.71042 38.769C4.61763 38.9754 4.47652 39.1596 4.29754 39.308C3.85095 39.6243 3.29769 39.7789 2.73933 39.7434H0V33.7608H2.68323C3.21289 33.7277 3.73833 33.8682 4.16977 34.1583C4.34305 34.2943 4.48026 34.4662 4.57058 34.6605C4.6609 34.8547 4.70185 35.066 4.69021 35.2776C4.70595 35.6077 4.59543 35.9321 4.37857 36.1924C4.17037 36.4301 3.88265 36.5949 3.56206 36.66C3.92548 36.7222 4.25352 36.9035 4.48764 37.1715ZM1.27461 36.2684H2.42146C2.6821 36.2865 2.94097 36.2159 3.1507 36.0697C3.23681 35.9965 3.3038 35.9057 3.34649 35.8043C3.38918 35.703 3.40643 35.5938 3.39689 35.4851C3.40499 35.3769 3.38738 35.2684 3.34535 35.1673C3.30332 35.0662 3.2379 34.9751 3.15381 34.9006C2.93781 34.7502 2.6709 34.6786 2.40276 34.699H1.27461V36.2684ZM3.26289 38.5627C3.35493 38.4878 3.42729 38.3939 3.47432 38.2885C3.52134 38.183 3.54178 38.0688 3.53402 37.9548C3.54104 37.8394 3.51967 37.724 3.47158 37.6176C3.42349 37.5112 3.34995 37.4165 3.25666 37.341C3.03228 37.185 2.75632 37.1084 2.47755 37.1247H1.27461V38.7702H2.49313C2.7674 38.785 3.03889 38.7119 3.26289 38.5627Z" fill="#AFB1B8"/>
<path d="M9.97245 39.7435L8.47968 37.4054H7.91873V39.7435H6.63477V33.7608H9.06557C9.67829 33.7207 10.284 33.9028 10.7578 34.2694C11.0976 34.5941 11.3025 35.0219 11.3357 35.4758C11.3688 35.9297 11.228 36.3798 10.9385 36.7449C10.6386 37.0671 10.229 37.2819 9.77923 37.3528L11.3686 39.7435H9.97245ZM7.91873 36.59H8.96896C9.6982 36.59 10.0628 36.2879 10.0628 35.6839C10.0703 35.5606 10.0503 35.4371 10.0041 35.3214C9.958 35.2057 9.88672 35.1002 9.79481 35.0117C9.56436 34.832 9.26757 34.7448 8.96896 34.7691H7.90626L7.91873 36.59Z" fill="#AFB1B8"/>
<path d="M16.9905 38.5393H14.432L13.9801 39.7434H12.6338L14.9836 33.8279H16.4389L18.7794 39.7434H17.4331L16.9905 38.5393ZM16.6477 37.6332L15.7128 35.1081L14.7779 37.6332H16.6477Z" fill="#AFB1B8"/>
<path d="M25.7759 39.7434H24.5013L21.6436 35.6751V39.7434H20.3721V33.7607H21.6436L24.5013 37.8525V33.7607H25.7759V39.7434Z" fill="#AFB1B8"/>
<path d="M33.0497 38.3114C32.7862 38.7631 32.3846 39.1306 31.8966 39.3665C31.3418 39.6293 30.7261 39.7589 30.1047 39.7435H27.8359V33.7609H30.1047C30.725 33.7457 31.3399 33.8721 31.8966 34.1291C32.3845 34.3597 32.7865 34.7235 33.0497 35.1725C33.3121 35.6591 33.4488 36.1967 33.4488 36.742C33.4488 37.2872 33.3121 37.8248 33.0497 38.3114ZM31.5912 38.1682C31.955 37.7708 32.155 37.2643 32.155 36.7405C32.155 36.2167 31.955 35.7102 31.5912 35.3128C31.1515 34.9528 30.5781 34.7701 29.9956 34.8043H29.1106V38.6768H29.9956C30.5781 38.711 31.1515 38.5282 31.5912 38.1682Z" fill="#AFB1B8"/>
<path d="M17.7886 0.483521C17.7886 0.483521 34.2401 6.30836 33.8911 14.7373V28.994C33.8911 28.994 17.452 23.1662 17.7948 14.7373L17.7886 0.483521Z" fill="#AFB1B8"/>
<path d="M48.5474 25.6563C51.6544 23.651 55.2483 22.4089 58.9998 22.0439V17.581C54.6772 19.1434 51.0101 21.9765 48.5474 25.6563Z" fill="#AFB1B8"/>
<path d="M46.6809 27.0007C49.2239 22.1985 53.6326 18.4927 59.0001 16.6458V3.78613C59.0001 3.78613 35.5708 12.0835 36.0663 24.0868V44.3846C36.0663 44.3846 37.1103 44.0134 38.7527 43.3179C38.7527 42.669 38.7527 42.0144 38.8275 41.3568C39.3124 35.7843 42.1372 30.6204 46.6809 27.0007Z" fill="#AFB1B8"/>
<path d="M44.4528 34.5411C44.5758 33.1334 44.8504 31.741 45.2724 30.3851C42.4432 33.5111 40.7299 37.39 40.3734 41.4766C40.3391 41.8624 40.3204 42.2482 40.311 42.6456C41.6417 42.0465 43.1906 41.2983 44.8174 40.4186C44.4022 38.4852 44.2795 36.5066 44.4528 34.5411Z" fill="#AFB1B8"/>
<path d="M45.3846 34.6142C45.2286 36.3925 45.3261 38.1823 45.6744 39.9364C52.0755 36.3444 59.2682 30.7943 58.9908 24.0868V23.5023C54.4175 23.9822 50.1387 25.8572 46.8119 28.8391C46.033 30.687 45.5519 32.6334 45.3846 34.6142Z" fill="#AFB1B8"/>
</g>
<defs>
<clipPath id="clip0">
<rect width="59" height="43.9011" fill="white" transform="translate(0 0.483521)"/>
</clipPath>
</defs>
</svg>
