<svg width="89" height="43" viewBox="0 0 89 43" fill="none" xmlns="http://www.w3.org/2000/svg">
<path d="M44.7404 20.429C44.3224 19.859 44.1225 19.1854 44.1699 18.5074V15.7215C44.1699 14.8674 44.359 14.2184 44.7372 13.7744C45.1154 13.3304 45.7649 13.1093 46.6858 13.1112C47.5512 13.1112 48.1654 13.3002 48.5287 13.678C48.9249 14.1602 49.1176 14.7498 49.0735 15.3445V15.9992H47.5255V15.336C47.531 15.1189 47.516 14.9019 47.4807 14.687C47.4584 14.5401 47.3804 14.4042 47.2595 14.3016C47.1006 14.1909 46.9003 14.1373 46.6987 14.1513C46.4866 14.1374 46.2762 14.194 46.1089 14.3101C45.9741 14.4238 45.8842 14.5728 45.8525 14.7352C45.8081 14.9626 45.7878 15.1931 45.7916 15.4239V18.805C45.7672 19.1312 45.8355 19.4576 45.9904 19.7544C46.0673 19.8549 46.1743 19.9345 46.2993 19.9845C46.4243 20.0345 46.5625 20.053 46.6987 20.0378C46.897 20.0523 47.0937 19.9973 47.2467 19.8848C47.3728 19.7741 47.454 19.6296 47.4775 19.4739C47.5136 19.2495 47.5297 19.023 47.5255 18.7965V18.1106H49.0735V18.737C49.117 19.3569 48.9289 19.9723 48.5383 20.4885C48.1825 20.9023 47.5768 21.1091 46.6858 21.1091C45.7949 21.1091 45.1218 20.8881 44.7404 20.429Z" fill="#AFB1B8"/>
<path d="M51.1861 20.4573C50.7951 20.0237 50.5996 19.3917 50.5996 18.5556V15.6251C50.5996 14.7975 50.7951 14.1712 51.1861 13.7461C51.5771 13.3209 52.2309 13.1093 53.1475 13.1112C54.0577 13.1112 54.7083 13.3228 55.0993 13.7461C55.4903 14.1712 55.689 14.7975 55.689 15.6251V18.5556C55.689 19.3832 55.4903 20.018 55.0929 20.4545C54.6955 20.8909 54.0481 21.1091 53.1475 21.1091C52.2469 21.1091 51.5803 20.8881 51.1861 20.4573ZM53.8686 19.7544C54.0086 19.4828 54.0724 19.1853 54.0545 18.8872V15.2992C54.0724 15.0069 54.0097 14.7151 53.8718 14.4489C53.7933 14.3464 53.6837 14.2654 53.5556 14.2153C53.4276 14.1652 53.2861 14.1479 53.1475 14.1655C53.0084 14.1484 52.8667 14.1658 52.7382 14.2159C52.6097 14.2659 52.4996 14.3466 52.42 14.4489C52.279 14.7143 52.2152 15.0065 52.2341 15.2992V18.9042C52.2146 19.2024 52.2785 19.5002 52.42 19.7714C52.5102 19.8629 52.6216 19.9361 52.7465 19.9863C52.8714 20.0365 53.0071 20.0625 53.1443 20.0625C53.2815 20.0625 53.4172 20.0365 53.5421 19.9863C53.667 19.9361 53.7783 19.8629 53.8686 19.7714V19.7544Z" fill="#AFB1B8"/>
<path d="M57.551 13.1967H59.2176L60.4707 18.6036L61.7527 13.1967H63.3744L63.5378 21.001H62.3392L62.211 15.5771L60.9739 21.001H60.0124L58.7304 15.5573L58.6119 21.001H57.4004L57.551 13.1967Z" fill="#AFB1B8"/>
<path d="M65.4061 13.1967H68.0021C69.4977 13.1967 70.2455 13.9354 70.2455 15.4128C70.2455 16.8278 69.4581 17.5343 67.8835 17.5325H66.9989V21.001H65.3965L65.4061 13.1967ZM67.6239 16.5321C67.7822 16.5499 67.943 16.537 68.0952 16.4945C68.2474 16.4519 68.3873 16.3806 68.5052 16.2856C68.689 16.022 68.77 15.7124 68.736 15.4043C68.7444 15.1662 68.7185 14.9281 68.6591 14.6958C68.6362 14.6182 68.5961 14.5454 68.5411 14.4817C68.486 14.4179 68.4172 14.3645 68.3386 14.3246C68.1161 14.2302 67.8702 14.1873 67.6239 14.1999H67.0021V16.5321H67.6239Z" fill="#AFB1B8"/>
<path d="M72.5559 13.1967H74.277L76.0428 21.001H74.5494L74.2 19.2016H72.6649L72.3059 21.001H70.79L72.5559 13.1967ZM74.027 18.2976L73.4277 15.0217L72.8283 18.2976H74.027Z" fill="#AFB1B8"/>
<path d="M77.469 13.1967H78.5908L80.7381 17.6486V13.1967H82.0681V21.001H81.0009L78.8407 16.3536V21.001H77.4658L77.469 13.1967Z" fill="#AFB1B8"/>
<path d="M85.1836 18.0254L83.3984 13.2076H84.9015L85.9912 16.3023L87.0136 13.2076H88.4846L86.7219 18.0254V21.001H85.1836V18.0254Z" fill="#AFB1B8"/>
<path d="M47.2146 24.4133V24.8214H45.907V27.9926H45.3589V24.8214H44.0449V24.4133H47.2146Z" fill="#AFB1B8"/>
<path d="M51.3141 27.9929H50.891C50.8481 27.9952 50.8057 27.9831 50.7724 27.9589C50.7404 27.9381 50.7159 27.9095 50.7019 27.8767L50.3238 27.0265H48.5097L48.1316 27.8767C48.1208 27.9122 48.1011 27.9452 48.0739 27.973C48.0403 27.9968 47.9982 28.0089 47.9553 28.007H47.5322L49.1347 24.4279H49.6924L51.3141 27.9929ZM48.6604 26.6638H50.1731L49.5321 25.2072C49.4848 25.097 49.4452 24.9844 49.4135 24.8699C49.3911 24.938 49.3719 25.0031 49.3526 25.0598L49.295 25.21L48.6604 26.6638Z" fill="#AFB1B8"/>
<path d="M54.0771 27.6413C54.1775 27.646 54.278 27.646 54.3784 27.6413C54.465 27.6335 54.5508 27.6192 54.6348 27.5988C54.7133 27.5818 54.7904 27.56 54.8655 27.5336C54.936 27.5081 55.0066 27.477 55.0803 27.4458V26.6408H54.4393C54.4234 26.6416 54.4076 26.6395 54.3927 26.6347C54.3778 26.6298 54.3642 26.6222 54.3527 26.6125C54.3422 26.6045 54.3339 26.5944 54.3283 26.5831C54.3228 26.5718 54.3202 26.5596 54.3207 26.5473V26.2724H55.5642V27.6442C55.4627 27.7084 55.3555 27.7653 55.2437 27.8142C55.1294 27.8641 55.0104 27.9049 54.888 27.9361C54.7569 27.9702 54.6229 27.9948 54.4874 28.0098C54.332 28.0251 54.1758 28.0326 54.0194 28.0325C53.743 28.0345 53.4688 27.9893 53.2118 27.8993C52.9719 27.8139 52.7538 27.6867 52.5708 27.5251C52.3924 27.3619 52.2519 27.1693 52.1574 26.9583C52.0564 26.721 52.0064 26.4692 52.0099 26.2157C52.0066 25.9606 52.0554 25.7071 52.1542 25.4675C52.2464 25.2553 52.3871 25.0624 52.5676 24.9006C52.7505 24.7396 52.9686 24.6132 53.2086 24.5293C53.483 24.438 53.7743 24.3928 54.0675 24.3961C54.2167 24.3959 54.3657 24.4064 54.513 24.4273C54.6433 24.446 54.771 24.4764 54.8944 24.518C55.0065 24.5552 55.1139 24.6027 55.2149 24.6597C55.3131 24.7156 55.4063 24.7782 55.4937 24.8468L55.3399 25.0678C55.3278 25.088 55.3099 25.105 55.2879 25.1169C55.2659 25.1289 55.2407 25.1354 55.2149 25.1358C55.1794 25.1348 55.145 25.125 55.1155 25.1075C55.0674 25.0848 55.0162 25.0565 54.9585 25.0225C54.8903 24.9847 54.8185 24.9524 54.7437 24.9261C54.6482 24.8922 54.5496 24.8657 54.4489 24.8468C54.3147 24.8249 54.1784 24.8144 54.0419 24.8156C53.8304 24.8135 53.6205 24.8472 53.4233 24.9148C53.245 24.978 53.0842 25.0747 52.9522 25.1982C52.8194 25.3269 52.7179 25.4783 52.6541 25.6432C52.511 26.0308 52.511 26.4487 52.6541 26.8364C52.7243 27.0047 52.8334 27.1582 52.9746 27.2871C53.1061 27.4099 53.2656 27.5065 53.4425 27.5705C53.6463 27.6324 53.8623 27.6565 54.0771 27.6413Z" fill="#AFB1B8"/>
<path d="M59.1856 27.5845H60.9355V27.9926H58.6504V24.4133H59.1984L59.1856 27.5845Z" fill="#AFB1B8"/>
<path d="M62.7551 27.9926H62.207V24.4133H62.7551V27.9926Z" fill="#AFB1B8"/>
<path d="M64.7939 24.4303C64.8265 24.4467 64.8548 24.4689 64.8772 24.4955L67.22 27.1936C67.2168 27.1512 67.2168 27.1085 67.22 27.0661C67.22 27.0264 67.22 26.9867 67.22 26.9499V24.3991H67.6975V27.9929H67.4219C67.3811 27.9958 67.3401 27.989 67.3033 27.973C67.27 27.9552 67.2407 27.9321 67.2168 27.905L64.8772 25.2097C64.8772 25.2522 64.8772 25.2919 64.8772 25.3316C64.8772 25.3712 64.8772 25.4081 64.8772 25.4421V27.9929H64.4189V24.4133H64.7042C64.7351 24.4133 64.7657 24.4191 64.7939 24.4303Z" fill="#AFB1B8"/>
<path d="M71.7328 24.4133V24.8072H69.7906V25.989H71.3642V26.3688H69.7906V27.5903H71.7328V27.9842H69.2266V24.4133H71.7328Z" fill="#AFB1B8"/>
<path d="M14.304 2.3086L38.6389 8.41866V29.8294L14.304 23.7221V2.3086ZM12.7432 0.483521V24.7622L40.1965 31.6573V7.38142L12.7432 0.483521Z" fill="#AFB1B8"/>
<path d="M27.4565 42.9276L0 36.0268V11.7507L27.4565 18.6487V42.9276Z" fill="#AFB1B8"/>
<path d="M13.1978 2.03368L37.2155 8.06711L27.0014 17.1017L2.98057 11.0654L13.1978 2.03368ZM12.7427 0.483521L0 11.7512L27.4565 18.649L40.196 7.3813L12.7427 0.483521Z" fill="#AFB1B8"/>
<path d="M29.002 41.5619L40.1967 31.6603L29.002 28.8462V41.5619Z" fill="#AFB1B8"/>
</svg>
